<svg version="1.1" xmlns="http://www.w3.org/2000/svg" xmlns:xlink="http://www.w3.org/1999/xlink" width="42.2" height="58.63016" viewBox="0,0,42.2,58.63016"><defs><radialGradient cx="446.30004" cy="319.7" r="20.1" gradientUnits="userSpaceOnUse" id="color-1"><stop offset="0" stop-color="#000000"/><stop offset="1" stop-color="#000000" stop-opacity="0"/></radialGradient></defs><g transform="translate(-424.20003,-281.16984)"><g data-paper-data="{&quot;isPaintingLayer&quot;:true}" fill-rule="nonzero" stroke-linecap="butt" stroke-linejoin="miter" stroke-miterlimit="10" stroke-dasharray="" stroke-dashoffset="0" style="mix-blend-mode: normal"><path d="M424.20004,317.00003c0,-10.93524 8.86476,-19.8 19.8,-19.8c10.93524,0 19.8,8.86476 19.8,19.8c0,10.93524 -8.86476,19.8 -19.8,19.8c-10.93524,0 -19.8,-8.86476 -19.8,-19.8z" fill="#4e4e4e" stroke="none" stroke-width="0"/><path d="M426.20004,319.7c0,-11.10092 8.99908,-20.1 20.1,-20.1c11.10092,0 20.1,8.99908 20.1,20.1c0,11.10092 -8.99908,20.1 -20.1,20.1c-11.10092,0 -20.1,-8.99908 -20.1,-20.1z" fill="url(#color-1)" stroke="none" stroke-width="NaN"/><g><path d="M444.00004,322.97092c-3.29764,0 -5.9709,-2.67326 -5.9709,-5.9709c0,-3.29764 2.67326,-5.9709 5.9709,-5.9709c3.29764,0 5.9709,2.67326 5.9709,5.9709c0,3.29764 -2.67326,5.9709 -5.9709,5.9709z" fill="none" stroke="#ffffff" stroke-width="5"/><g fill="#ffffff" stroke="none" stroke-width="0"><path d="M441.92905,327.89286v-5.64814h4.14198v5.64815z"/><path d="M441.92905,311.75532v-5.64814h4.14198v5.64815z"/></g><g fill="#ffffff" stroke="none" stroke-width="0"><path d="M434.83322,323.23803l3.99384,-3.99384l2.92882,2.92882l-3.99384,3.99384z"/><path d="M446.24418,311.82705l3.99384,-3.99384l2.92881,2.92881l-3.99384,3.99384z"/></g><g fill="#ffffff" stroke="none" stroke-width="0"><path d="M433.10718,314.92904h5.64815v4.14197h-5.64815z"/><path d="M449.24475,314.92904h5.64815v4.14198h-5.64815z"/></g><g fill="#ffffff" stroke="none" stroke-width="0"><path d="M450.23804,326.16686l-3.99384,-3.99385l2.92881,-2.92881l3.99385,3.99384z"/><path d="M438.82707,314.75586l-3.99385,-3.99384l2.92882,-2.92882l3.99384,3.99385z"/></g></g><g fill="#000000" stroke="#000000" stroke-width="0" font-family="Sans Serif" font-weight="normal" font-size="40" text-anchor="start"><text transform="translate(424.22273,292.34475) scale(0.25523,0.25523)" font-size="40" xml:space="preserve" fill="#000000" fill-rule="nonzero" stroke="#000000" stroke-width="0" stroke-linecap="butt" stroke-linejoin="miter" stroke-miterlimit="10" stroke-dasharray="" stroke-dashoffset="0" font-family="Sans Serif" font-weight="normal" text-anchor="start" style="mix-blend-mode: normal"><tspan x="0" dy="0">Settings</tspan></text><text transform="translate(424.62274,292.34475) scale(0.25523,0.25523)" font-size="40" xml:space="preserve" fill="#000000" fill-rule="nonzero" stroke="#000000" stroke-width="0" stroke-linecap="butt" stroke-linejoin="miter" stroke-miterlimit="10" stroke-dasharray="" stroke-dashoffset="0" font-family="Sans Serif" font-weight="normal" text-anchor="start" style="mix-blend-mode: normal"><tspan x="0" dy="0">Settings</tspan></text><text transform="translate(424.42274,292.14473) scale(0.25523,0.25523)" font-size="40" xml:space="preserve" fill="#000000" fill-rule="nonzero" stroke="#000000" stroke-width="0" stroke-linecap="butt" stroke-linejoin="miter" stroke-miterlimit="10" stroke-dasharray="" stroke-dashoffset="0" font-family="Sans Serif" font-weight="normal" text-anchor="start" style="mix-blend-mode: normal"><tspan x="0" dy="0">Settings</tspan></text><text transform="translate(424.42274,292.54474) scale(0.25523,0.25523)" font-size="40" xml:space="preserve" fill="#000000" fill-rule="nonzero" stroke="#000000" stroke-width="0" stroke-linecap="butt" stroke-linejoin="miter" stroke-miterlimit="10" stroke-dasharray="" stroke-dashoffset="0" font-family="Sans Serif" font-weight="normal" text-anchor="start" style="mix-blend-mode: normal"><tspan x="0" dy="0">Settings</tspan></text></g></g></g></svg>