<svg version="1.1" xmlns="http://www.w3.org/2000/svg" xmlns:xlink="http://www.w3.org/1999/xlink" width="42.2" height="42.6" viewBox="0,0,42.2,42.6"><defs><radialGradient cx="446.3" cy="319.7" r="20.1" gradientUnits="userSpaceOnUse" id="color-1"><stop offset="0" stop-color="#000000" stop-opacity="0.30196"/><stop offset="1" stop-color="#000000" stop-opacity="0"/></radialGradient></defs><g transform="translate(-424.2,-297.2)"><g data-paper-data="{&quot;isPaintingLayer&quot;:true}" fill-rule="nonzero" stroke-linecap="butt" stroke-linejoin="miter" stroke-miterlimit="10" stroke-dasharray="" stroke-dashoffset="0" style="mix-blend-mode: normal"><path d="M424.2,317c0,-10.93524 8.86476,-19.8 19.8,-19.8c10.93524,0 19.8,8.86476 19.8,19.8c0,10.93524 -8.86476,19.8 -19.8,19.8c-10.93524,0 -19.8,-8.86476 -19.8,-19.8z" fill="#b3b3b3" stroke="none" stroke-width="0"/><path d="M426.2,319.7c0,-11.10093 8.99908,-20.1 20.1,-20.1c11.10093,0 20.1,8.99907 20.1,20.1c0,11.10093 -8.99907,20.1 -20.1,20.1c-11.10093,0 -20.1,-8.99908 -20.1,-20.1z" fill="url(#color-1)" stroke="none" stroke-width="NaN"/><g><path d="M444,322.9709c-3.29764,0 -5.9709,-2.67326 -5.9709,-5.9709c0,-3.29764 2.67326,-5.9709 5.9709,-5.9709c3.29764,0 5.9709,2.67326 5.9709,5.9709c0,3.29764 -2.67326,5.9709 -5.9709,5.9709z" fill="none" stroke="#282828" stroke-width="5"/><g fill="#282828" stroke="none" stroke-width="0"><path d="M441.92901,327.89286v-5.64814h4.14198v5.64815z"/><path d="M441.92901,311.75529v-5.64814h4.14198v5.64815z"/></g><g fill="#282828" stroke="none" stroke-width="0"><path d="M434.83318,323.23801l3.99384,-3.99384l2.92882,2.92882l-3.99384,3.99384z"/><path d="M446.24416,311.82702l3.99384,-3.99384l2.92881,2.92881l-3.99384,3.99384z"/></g><g fill="#282828" stroke="none" stroke-width="0"><path d="M433.10714,314.92901h5.64815v4.14197h-5.64815z"/><path d="M449.24471,314.92902h5.64815v4.14198h-5.64815z"/></g><g fill="#282828" stroke="none" stroke-width="0"><path d="M450.23801,326.16683l-3.99384,-3.99385l2.92881,-2.92881l3.99385,3.99384z"/><path d="M438.82703,314.75584l-3.99385,-3.99384l2.92882,-2.92882l3.99384,3.99385z"/></g></g></g></g></svg>